<?xml version="1.0" encoding="UTF-8" standalone="no"?>
<svg
   xmlns:svg="http://www.w3.org/2000/svg"
   xmlns="http://www.w3.org/2000/svg"
   version="1.0"
   width="729pt"
   height="729pt"
   viewBox="0 0 729 729"
   id="svg2">
  <defs
     id="defs165" />
  <path
     d="M 0,0 L 0.1,0 C 0.1,0 0,0.1 0,0.1 L 0,0 z"
     id="path4"
     style="opacity:1;fill:#cac4ff;stroke:#cac4ff;stroke-width:0.09375" />
  <path
     d="M 76,373.79999 C 79.252958,376.74826 81.713699,380.49895 84.84881,383.46251 C 81.976436,381.81062 78.52308,378.99829 76.918983,376.04232 C 76.536105,375.32947 76.222897,374.57821 76,373.79999 z"
     id="path104"
     style="opacity:1;fill:#32397d;stroke:#32397d;stroke-width:0.09375" />
  <path
     d="M 56,30.1 C 69,19.2 87.3,18.6 103.2,21.7 C 119.6,24.7 133.7,35.5 142.9,49.2 C 155.1,66.8 160.4,87.8 165.8,108.2 C 167.2,112.5 167.7,117.4 171,120.8 C 172.75258,118.18564 171.23682,124.77629 170.93682,126.27629 C 155.98159,104.9039 155.1,75.8 141.2,53.8 C 132.7,39.5 118.4,29.2 102.5,24.7 C 83.7,17 59.6,24.4 49.2,42 C 57.3,36.6 68.5,37.8 75,44.9 C 86.7,57.9 89.3,75.8 95.7,91.5 C 105.6,112 124.6,126.1 142.1,139.9 C 146.8,143.8 152.6,147.6 154,153.9 C 153.1,157.1 150.1,159 147.3,160.4 C 138.2,165 128.3,167.6 119.4,172.5 C 117.1,171.1 114.9,169.7 112.6,168.3 C 122.7,163.5 134.8,162.9 143.8,155.7 C 147.5,152.1 143.1,147.2 140,144.9 C 124.6,133.5 106.9,124.5 94.3,109.6 C 82.7,96.3 80.9,77.4 70.8,63.2 C 68.1,59.2 63.1,56.4 58.3,58.3 C 48.5,62.1 42,70.9 35,78.3 C 33.8,60.2 42.2,41.8 56,30.1 z"
     id="path16"
     style="opacity:1;fill:#4e569b;stroke:#4e569b;stroke-width:0.09375" />
  <path
     d="M 174.13947,102.13947 C 179.09537,99.078471 186.6,101.1 189.6,106.4 C 193.5,113 191.51716,129.7774 190.41716,137.1774 C 188.64675,128.00133 185.10803,112.0049 181.56973,111.01841 C 178.33439,110.11638 173.98814,117.88939 170.9092,120.70125 C 169.2908,113.62761 168.89537,105.37847 174.13947,102.13947 z"
     id="path40"
     style="opacity:1;fill:#4e569b;stroke:#4e569b;stroke-width:0.09375" />
  <path
     d="M 207.2,575.4 C 216,575.5 224.7,575.3 233.5,575.5 C 232.3,576.5 231.1,577.7 229.9,578.8 C 220.2,582.7 209.3,585 201.7,592.7 C 198.6,595.6 199.3,600.9 202.5,603.5 C 208.7,608.6 216.7,610.8 224.4,612.6 C 249.2,619.2 275,619.7 300.4,622.5 C 318.3,623.4 336.1,623.3 354,623.4 C 374,625.2 394,624 414,624.3 C 434.3,622.3 454.8,624.1 475.2,622.4 C 508.7,619 542.1138,613.46347 574.0138,604.61932 C 581,600.14968 590.36654,598.50413 586.20265,591.23947 C 580.96654,582.10413 553.12354,581.51532 544.62078,577.10552 C 554.4194,576.90276 579.99862,577.39862 589.6,577.6 C 603.42443,591.7824 629.19488,618.51234 641.4,631.5 C 483.9,631.7 326.5,631.5 169,631.6 C 163.1,631.7 157.3,631.3 151.5,632 C 172.86124,611.22726 189.9907,593.16308 207.2,575.4 z"
     id="path142"
     style="opacity:1;fill:#8890c8;stroke:#8890c8;stroke-width:0.09375" />
  <path
     d="M 780.0625,14.875 C 766.00382,14.750207 751.875,18.5625 740.25,26.375 C 720.75,38 707.625,59.25 703.625,81.375 C 704.25,81 705.625,80.375 706.25,80.125 C 714,40.375 757.12414,11.659623 797.625,20.375 C 806.49914,22.284624 813.58517,27.518054 811.4375,33.09375 C 807.08518,44.393052 787.05753,48.268043 773.21875,55.75 C 756.30756,64.893041 738.625,74.75 730.875,93.625 C 726.875,102.875 728.875,113.125 728.125,122.875 C 739.125,145.75 757,164.25 771.125,185.125 C 795,217 814.875,255.375 812.25,296.25 C 813.125,310.625 807.875,324.75 800.5,336.875 C 800.375,337 800.25,337.25 800.125,337.375 C 800.125,338.125 800,339.625 799.875,340.5 C 789,353.75 775.625,364.75 760.375,372.75 C 752.75,375.75 753.125,384.5 752.25,391.25 C 745.625,430.375 723.5,464.25 701.125,496.25 C 693.5,508.125 684,518.875 677.875,531.875 C 674,540.25 676.125,549.75 677.625,558.375 C 680.75,576.625 688.875,593.75 700.875,607.75 C 707.25,613.875 688.31247,648.21877 684.9375,654.46875 C 681.22722,701.10651 679.7231,683.14293 677.625,675.3125 C 665.44421,680.6678 665.3731,698.99126 655.875,703.375 C 652.3731,704.99126 646.5,705.75 645.875,700.75 C 645.875,692.625 652,686.375 656.375,680 C 668.5,663.5 677.875,643.5 675.375,622.5 C 668.25,614.625 659.25,608.75 650.25,603.5 C 626.375,587.625 600.875,573.75 581.25,552.375 C 573.5,545.5 570.5,535.25 566.375,526 C 565.375,526 563.5,526 562.5,525.875 C 553.5,535.125 544.125,546.875 530,547.25 C 506.875,551.625 484.875,541.375 463,535.5 C 442.75,530 423.5,544.75 413.75,561.375 C 408.625,569.125 409.75,578.75 408.375,587.5 C 405.25,603.375 412.25,619.375 408.875,635.25 C 407.25,644.125 400.75,651 399.5,659.875 C 396.25,676.875 401.5,695.125 393.75,711.375 C 390.375,717.25 384,722.375 376.875,721.625 C 368.125,719 359.5,710.25 362,700.375 C 365,685.375 370.5,670.625 369.25,655 C 369.375,645.125 362.125,636.375 364.375,626.375 C 368.375,610.625 370.125,594.25 368.625,578 C 370.125,559.5 360.9096,542.41826 351.75,527.125 C 346.9096,519.04326 343.25,509.875 335.75,503.875 C 337,513 340.97065,521.25896 343.375,530.125 C 348.97065,550.75896 349.5,572.375 355.5,592.875 C 358.5,604 360.5,616.5 354.5,627 C 344.375,647.5 342.875,670.625 343.125,693 C 341.625,694.125 340.125,695.25 338.625,696.5 C 336.25,694.125 331.875,692.125 332.25,688.125 C 332.875,673.25 338.875,657.875 333,643.5 C 329.25,635.125 327.125,626.375 323.75,617.875 C 323.75,622 325.94763,626.77804 326.34375,631 C 326.8726,636.63632 326.75,641.25 327.875,647 C 332.5,659.5 332.375,674.25 327.75,686.75 C 327.375,698.125 315.875,701.625 308.625,707.875 C 315.375,706.375 321,702.125 327,698.875 C 331.375,705 331.03126,718.68747 337.40625,723.1875 C 343.40625,724.3125 349.96876,721.00002 354.84375,726.75 C 364.21875,734.5 369.12367,740.69658 380.46875,745.0625 C 386.54782,747.40191 386.75001,758.03126 376,759.65625 C 356.375,761.90625 342.5,768.75 323.25,761.75 C 317.5,758.875 316.5,752 314.625,746.5 C 303.375,742.75 285.125,739.375 287.375,723.5 C 275.25,728.375 261.625,731.25 252.125,740.875 C 248.25,744.5 249.125,751.125 253.125,754.375 C 260.875,760.75 270.875,763.5 280.5,765.75 C 311.5,774 343.75,774.625 375.5,778.125 C 397.875,779.25 420.125,779.125 442.5,779.25 C 467.5,781.5 492.5,780 517.5,780.375 C 542.875,780.09395 567.76035,779.38535 594,778 C 635.62845,774.98275 678.13508,771.78172 718.25,757.75 C 728.03786,754.32634 737.625,748.625 733.625,738.875 C 719.99669,726.11361 699.00541,722.94757 680.875,721.75 C 683.13588,713.59895 689.07789,704.08987 690.5,696.25 C 693.95289,677.21487 699.75,658.375 703,639.25 C 705.89885,629.47983 711.003,611.64171 703.1875,603.0625 C 699.4395,598.94828 691.74987,576.11444 688.0625,562.25 C 685.49985,552.61444 690.625,544.375 690.75,535.375 C 696.625,518.625 709,505 720,491.5 C 731.5,470.75 742.5,449.25 748.75,426 C 753.625,416 753.25,404 759.375,394.75 C 770.125,389.75 781.375,384.625 790.125,376.375 C 815.125,356.125 828.75,323.25 827.375,291.25 C 827,282.75 828.25,273.875 825.75,265.5 C 818.25,236.625 801.75,211.125 783,188.375 C 766.125,164.75 744.25,144.125 733.625,116.5 C 728.625,102.75 734.125,87 745.75,78.25 C 768.125,58.875 819.51314,47.959618 822.375,36.875 C 823.66084,31.894661 822.96155,29.412494 819.5,27 C 808.10974,19.061671 794.12118,14.999793 780.0625,14.875 z M 426.125,565.125 C 468.33083,579.47084 511.49655,586.95094 557.25,575.6875 C 564.77218,599.52297 580.37299,610.20625 595.8125,625.875 C 600.16052,630.1537 599.48126,639.77936 597,646 C 590.60626,662.02936 579.23846,677.1246 566.59375,689.125 C 559.61345,695.74959 550.84627,696.86746 542.125,705 C 540.51863,706.49798 540.5,708 540.5,708 C 494.25,707 449.96875,707.75 403.96875,707.75 C 402.02227,687.38484 406.49635,665.98852 412.34375,653.0625 C 418.19114,640.13648 422.73811,642.52815 422.34375,633.125 C 421.62097,615.89138 416.13645,605.51958 415.8125,595.40625 C 415.48856,585.29289 420.49042,576.58359 426.125,565.125 z M 629.875,603 C 633.625,604.375 636.45471,607.59365 639.75,609.875 C 646.20471,614.34365 654.51674,616.95965 660.375,622.125 C 666.14174,627.20965 664.39495,636.12426 662.5,643.875 C 655.93903,668.29135 645.69415,691.53399 632.25,712.875 C 618.47159,711.625 622.31311,711.26035 609.15625,709.625 C 615.83382,661.09646 627.36788,650.99981 635.25,635.5 C 637.10545,628.6967 635.16536,620.34915 631.125,614 C 629.04036,610.72415 629.875,606.75 629.875,603 z"
     transform="scale(0.8,0.8)"
     id="path8"
     style="opacity:1;fill:#4e569b;stroke:#4e569b;stroke-width:0.075" />
  <path
     d="M 267.9,41 C 272.2,37.4 277.4,40.6 281.6,42.5 C 303.8,51.6 328.4,55.1 349.1,67.9 C 368.2,79.2 381.7,99.4 385.1,121.2 C 386.20125,126.80376 382.3069,118.49724 381.8069,116.69724 C 376.6069,99.09724 365.4,82.8 349.9,73 C 328,56.9 300.2,54.3 275.8,43.8 L 275.2,43 C 274.5,42.3 273.8,41.7 273.1,41 C 267.3,44.2 264.2,50.2 262.3,56.2 C 255.4,70.4 250.4,85.3 245.3,100.2 C 238.8,116.4 236,134 229.5,150.3 C 226.1,150.7 222.6,150.8 219.2,150.6 C 218.7,148.1 217.31058,146.79976 215.51058,144.89976 C 217.21058,138.39976 220,129 214.4,123.7 C 209.9,119.4 203.9,122.7 199,124.3 C 202.8,119.4 210.2,114.7 216,119 C 224.3,124.8 225.7,136.7 220.5,145 C 223.5,145 226.4,145 229.4,145 C 232.8,120.5 239.7,96.6 248.4,73.4 C 253.4,61.9 257.8,49 267.9,41 z"
     id="path22"
     style="opacity:1;fill:#4e569b;stroke:#4e569b;stroke-width:0.09375" />
  <path
     d="M 49.2,42 C 59.6,24.4 83.7,17 102.5,24.7 C 118.4,29.2 132.7,39.5 141.2,53.8 C 155.1,75.8 157.02761,103.78814 170.72761,125.78814 C 171.02761,124.28814 170.83438,123.87631 171,120.8 C 171.31683,114.915 174.99568,110.25012 180.80265,110.53027 C 188.32602,110.89323 190.61411,127.27984 190.4053,137.47224 C 192.9053,134.77224 196.3,126.8 199,124.3 C 203.9,122.7 209.58557,119.27981 214.4,123.20046 C 220.55878,128.21588 218.63074,139.1 215.43211,145.6 C 213.13211,146.7 210.60046,149.7968 206.40228,149.59817 C 208.00274,141.50137 213.4,138.2 213.2,133.1 C 212.6,128.4 207.1,126.7 203.1,127.9 C 197.8,129.5 193.2,133.2 190.3,137.8 C 189.7,131.7 189.2,125.3 186.3,119.8 C 184.3,115.7 178.1,114.6 175,118.1 C 172.9,121.6 173.8,126 173.8,129.9 C 168.2,125.3 164.1,119.2 161.6,112.5 C 152.9,91 148.4,67.1 133,49 C 118.3,29.3 88.3,18.9 66.4,32.7 C 83.1,37.7 93.1,53.7 98.6,69.2 C 106.8,96 123.7,120.1 146,137.1 C 152.5,142.2 161.5,143.7 166.2,151 C 161.7,158.6 153,161.6 145,164.3 C 136.8,166.4 129,169.8 121.7,174 C 120.9,173.5 120.1,173 119.4,172.5 C 128.3,167.6 138.2,165 147.3,160.4 C 150.1,159 153.1,157.1 154,153.9 C 152.6,147.6 146.8,143.8 142.1,139.9 C 124.6,126.1 105.6,112 95.7,91.5 C 89.3,75.8 86.7,57.9 75,44.9 C 68.5,37.8 57.3,36.6 49.2,42 z"
     id="path18"
     style="opacity:1;fill:#6269ab;stroke:#6269ab;stroke-width:0.09375" />
  <path
     d="M 58.700001,322.89999 C 59.588442,316.05683 64.232336,302.27657 66.613989,301.08533 C 60.593603,317.27294 57.697624,335.50344 65.087424,351.8926 C 72.812179,368.62209 88.386454,384.05333 108,382.7 C 121.81109,383.32594 137.68689,381.81826 145.83103,368.71727 C 155.37199,362.97022 148.22537,334.80993 166.47316,349.69681 C 169.2277,355.72791 160.22166,377.34972 170.18424,363.84212 C 177.22091,352.70936 177.10475,338.69997 179.91254,326.6915 C 190.34699,317.5475 206.27302,327.37283 217.94716,322.15621 C 236.68301,311.78694 247.05429,340.02765 254.25937,352.30231 C 255.84063,356.13102 258.68809,369.46895 251.77697,361.19402 C 243.67851,353.38306 255.98925,376.02868 253.81046,383 C 247.83394,399.19124 255.58331,413.69266 261.25649,428.42442 C 265.95856,445.50937 270.8847,458.33815 265.59559,475.68396 C 265.11407,482.28664 266.22076,498.27855 265.29399,486.19208 C 264.44699,475.1459 267.36276,464.16768 264.7227,453.14946 C 262.30294,439.18176 252.91746,427.24692 248.07031,412.69531 C 242.8505,393.12715 239.60826,373.09036 237.2,353 C 232.38952,339.79675 219.49033,326.91907 204.32864,330.88799 C 192.38874,331.33899 179.11616,338.86102 179.1,352.2125 C 178.13721,365.68815 161.57057,380.2032 148.90685,386.29634 C 151.87995,377.90671 161.40533,356.51508 158.37407,352.34902 C 157.80066,368.50839 147.27772,383.65456 131.56524,387.53581 C 119.3549,390.39123 105.05277,392.83355 93.777734,387.24657 C 78.382126,379.61778 66.201266,365.22163 60.68262,348.722 C 58.023634,340.42858 57.203315,331.50123 58.700001,322.89999 z"
     id="path88"
     style="opacity:1;fill:#4e569b;stroke:#4e569b;stroke-width:0.09375" />
  <path
     d="M 157.44869,348.22547 C 163.03164,355.36369 158.32199,377.41106 154.90137,381.80046 C 151.2767,386.45171 148.93632,388.56667 144.9,391 C 130,398.9 111.2,398.7 96.3,390.7 C 93.7,389.1 90.79735,388.18113 88.72106,384.70219 C 99.853859,390.1899 107.51436,389.79452 117,389.3 C 129.88598,388.62821 143.50223,384.1147 151.2,373.1 C 155.80223,366.5147 157.72999,357.64378 157.44869,348.22547 z"
     id="path102"
     style="opacity:1;fill:#32397d;stroke:#32397d;stroke-width:0.09375" />
  <path
     d="M 638.1,16.3 C 645.4,15.5 654.91814,22.439442 653.2,26.9 C 649.71814,35.939442 631.3,39 620.4,45.3 C 606.7,52.3 590.9,59.8 584.7,74.9 C 581.5,82.3 583.1,90.5 582.5,98.3 C 579,89.1 577.3,77.9 583.4,69.3 C 599.6,47.6 626.6,39.4 647.3,23.2 C 646.8,21.9 646.3,20.6 645.8,19.2 C 643.2,18.5 640.6,17.4 638.1,16.3 z"
     id="path12"
     style="opacity:1;fill:#6269ab;stroke:#6269ab;stroke-width:0.09375" />
  <path
     d="M 262.3,56.2 C 264.2,50.2 268.7646,41.567589 273.19862,41.09862 C 275.69017,40.835099 275.58482,43.286201 276.28482,43.986201 C 275.28482,44.386201 273.1,43.9 272.1,44.4 C 267.2,46.7 265.4,52.2 262.3,56.2 z"
     id="path24"
     style="opacity:1;fill:#6269ab;stroke:#6269ab;stroke-width:0.09375" />
  <path
     d="M 44.1,64.8 C 45.8,58.3 48.2,51 54.2,47.3 C 59.4,47 63.7,51.3 66.2,55.4 C 57.8,53.5 49.8,59.1 44.1,64.8 z"
     id="path30"
     style="opacity:1;fill:#32397d;stroke:#32397d;stroke-width:0.09375" />
  <path
     d="M 260.92107,75.347424 C 274.54319,63.279375 289.46539,89.364193 297.1181,98.823421 C 308.39916,116.61476 319.7499,136.75419 342.36116,140.0104 C 357.91493,142.04782 377.42071,156.11112 386.02089,161.69492 C 386.55067,147.2949 371.04971,106.98662 384.78424,119.60279 C 389.37777,138.88505 389.77746,171.65048 387.70682,186.92455 C 377.6527,170.46794 358.93928,156.90605 339.9563,154.40474 C 317.00887,148.89453 300.58997,126.58885 285.9335,109.67219 C 273.5132,119.17699 266.70498,149.84724 260.5,168.1 C 267.67615,179.10832 271.50435,190.26431 273.56608,200.73174 C 277.76017,222.02522 274.1881,244.91556 277.53125,249.02465 C 281.2549,253.60141 294.71532,251.82773 304.87127,251.69745 C 315.02722,251.56716 322.39455,250.03442 334.7,249.6 C 364.49778,248.54804 405.36834,235.79321 439.97537,225.89377 C 462.60631,219.42013 485.67261,215.31423 509.19382,216.11446 C 540.40823,217.17643 576.13819,236.44727 589.91176,260.67742 C 609.21237,257.57087 622.88232,251.03468 629.04999,236.9769 C 639.22219,213.79174 623.64212,193.60554 610.59297,176.58733 C 592.31252,149.2697 566.91909,124.13455 563.16709,90.414709 C 562.00601,79.979893 561.76242,79.031359 562.92869,64.718793 C 567.76912,50.323041 591.45992,127.62416 605.98681,149.66712 C 623.16664,174.40255 642.77672,203.85057 636.54825,235.56782 C 631.05034,256.65832 604.72912,275.64677 584.6,267.44481 C 558.50222,241.48931 521.3907,221.54986 483.34033,229.03382 C 441.55827,237.25175 402.1047,256.97796 359.29112,259.14566 C 339.09925,256.65508 318.61492,261.69644 298.60552,258.24481 C 286.2996,257.9684 266.11277,271.90574 268.46491,249.35545 C 265.65411,220.74871 263.86204,186.29315 243.61145,164.19092 C 221.96292,157.29793 244.77788,131.63934 245.06121,116.41909 C 248.87904,102.81644 254.22707,87.827388 260.92107,75.347424 z"
     id="path36"
     style="opacity:1;fill:#4e569b;stroke:#4e569b;stroke-width:0.09375" />
  <path
     d="M 275.8,43.8 C 300.2,54.3 328,56.9 349.9,73 C 352,75 354,77.2 356.1,79.3 C 350.4,76.6 344.97239,73.564434 338.67239,72.264434 C 328.27239,68.764434 316.84602,71.988145 311.74602,81.988145 C 309.24602,89.688145 315.35523,94.784241 319.95523,100.28424 C 331.75523,111.98424 346.22371,118.77769 363.02371,117.67769 C 368.12371,117.67769 373.12636,114.69345 372.12636,109.09345 C 371.52636,98.793445 365.2,92.5 360.7,83.8 C 373.4,95.5 383.3,112.4 382.4,130 C 382.6,135.9 375.9,138.4 371,138.3 C 352.8,139.1 335.7,130.9 320.7,121.4 C 306,111.8 298.1,95.9 289.9,81 C 286.1,74.5 282.5,67.2 275.5,63.6 C 269.8,61.6 265.4,67.2 262.3,71.2 C 247.8,94.3 242.7,121.5 233.9,146.8 C 236,130.9 241.8,115.8 245.3,100.2 C 250.4,85.3 255.4,70.4 262.3,56.2 C 265.4,52.2 267.2,46.7 272.1,44.4 C 271.5,47.5 270.1,50.2 268.3,52.7 C 271.1,52.7 274.59586,49.734496 277.58482,53.119318 C 283.18068,55.651055 291.1,61 296.7,55.9 C 291.6,48.7 279.5,52.4 275.8,43.8 z"
     id="path28"
     style="opacity:1;fill:#8890c8;stroke:#8890c8;stroke-width:0.09375" />
  <path
     d="M 262.3,71.2 C 265.4,67.2 269.8,61.6 275.5,63.6 C 282.5,67.2 286.1,74.5 289.9,81 C 298.1,95.9 306,111.8 320.7,121.4 C 335.7,130.9 352.8,139.1 371,138.3 C 375.9,138.4 382.6,135.9 382.4,130 C 383.3,112.4 373.4,95.5 360.7,83.8 C 359.3,82.3 357.7,80.7 356.1,79.3 C 354,77.2 352,75 349.9,73 C 365.4,82.8 377.05066,98.255409 382.3,116.5 C 384.84312,125.33886 386.23015,133.97771 387.12106,143 C 387.81977,150.07585 388.34231,155.21153 387.7577,166.6577 C 372.9577,152.6577 351,143.2 331.6,138.2 C 305.4,127 297.4,96.6 277.5,78.4 C 273.3,74.2 264.7,69.7 261.2,77.3 C 247.8,102.3 242.7,130.8 235.6,158.1 C 244,161.5 250.4,168.6 254.1,176.9 C 261.8,191.7 265.7,208.1 268.2,224.6 C 270,236 269.6,247.8 272.9,259 C 273.9,259.4 274.9,259.9 275.9,260.4 C 283.2,257 290.9,255.3577 299,255.0577 C 307.7,254.3577 316.1,257.9 324.9,256 C 341.5,253.2 358.20255,258.31745 374.9,255.1 C 418.40255,246.71745 459.3774,224.30434 504,223.30092 C 534.9774,222.60434 563,242.4 584.6,263.5 C 594.7,270.7 606.3,262.9 616.6,260.4 C 606.3,266.9 593.8,271.7 581.5,268.6 C 578.7,261.9 570.2032,260.89589 565.0032,255.99589 C 551.9032,245.79589 539.7,234 523,232.5 C 501.3,228.1 478.3,231.1 458,240 C 447,246.7 435.2,251.9 423.4,257.2 C 410.4,263.4 396.5,267.9 382,268.7 C 363,270.2 345,259.5 326,263.7 C 314.3,265.4 303.2,270.8 291.2,270 C 281.3,270.3 269.2,267.2 264.8,257.3 C 263,243.3 266.1,228.9 262.2,215.1 C 259.9,203.5 251.7,194.4 242.2,187.9 C 243.3,180.1 245,171.1 241.3,163.8 C 232.2,156 213.40677,156.92584 204.63262,155.12985 C 212.47597,149.46284 214.55221,150.05918 229.5,150.3 C 236,134 238.8,116.4 245.3,100.2 C 241.8,115.8 236,130.9 233.9,146.8 C 242.7,121.5 247.8,94.3 262.3,71.2 z"
     id="path32"
     style="opacity:1;fill:#6269ab;stroke:#6269ab;stroke-width:0.09375" />
  <path
     d="M 639.13406,16.02106 C 644.28844,17.316464 650.81142,20.387633 646.46318,26.268339 C 638.02888,33.487495 625.78325,38.132693 614.23119,44.693435 C 602.67913,51.254178 591.5,58.45 583.4,69.3 C 577.3,77.9 579,89.1 582.5,98.3 C 591.3,116.6 605.6,131.4 616.9,148.1 C 636,173.6 651.9,204.3 649.8,237 C 650.5,248.5 646.3,259.8 640.4,269.5 C 640.3,269.6 640.2,269.8 640.1,269.9 C 628.9,285.1 610.2,291.5 593.3,298.5 C 593.8,308.5 593.1,318.8 589.6,328.3 C 581.6,353.7 570.4,378.2 555,400 C 548.2,410.2 535.6,416.6 532.5,429.1 C 529.6,452 547.4,469.7 555.9,489.3 C 557.6,492.2 553.8,495.1 551,494.4 C 541.1,493.3 533,486.9 524.2,482.8 C 510.8,474.6 498.8,464.4 486.8,454.3 C 478.6,447.7 472.1,439.3 466.5,430.4 C 460.7,421.6 459.2,410.3 462,400.1 C 468,379.5 482.1,362.3 488.5,341.9 C 491.7,331.2 483.1,321.1 473,319.2 C 469.3,318.7 466.3,321.8 465.3,325.1 C 461,338.5 463.7,352.9 459.8,366.3 C 456.3,379.2 452.9,393.4 442.9,403 C 434.1,408.7 423.3,410.6 413,412.4 C 400.1,414.2 386.1,414.2 374.5,407.6 C 368,403.9 364.8,395.9 357.3,393.6 C 354.9,402.5 356,412.3 351.8,420.7 C 344.5,434.1 326.3,438.7 322.7,454.5 C 321.5,467.9 323,481.5 322.1,495 C 320.9,506.3 310.34951,522.14628 299.7,517.6 C 293.24951,514.84628 296,503.1 298.1,496.2 C 303,482.3 305.9,467.7 305.9,453 C 307.6,442.1 306.4,430.2 299.9,421 C 290,407.3 278.3,395.1 268.8,381.1 C 258.8,363.4 259.1,342.3 260.2,322.6 C 258.5,308.4 262.6,291.4 252.2,279.8 C 243.9,283 240.9,291.7 236.8,298.8 C 228.8,312.3 212.4,319.3 197.1,318.1 C 189.6,317.4 185.6,310.4 183.4,304 C 176.4,305.8 166.8,306.7 163.4,314 C 165.4,319.7 172.8,321.4 174.8,327.3 C 179.9,336.5 176.4,347.5 170.5,355.3 C 169.3,346.7 157.6,338.7 151,346.9 C 150.8,363.4 136.4,377.1 120.7,379.9 C 104.5,382.1 87.4,377.6 74.8,367.2 C 62.8,355.7 58.5,338.1 60.9,322 C 62,314.3 65,307.1 67,299.7 C 71.6,289.5 78.6,280.6 86.2,272.5 C 87.9,270.8 89.7,269.1 91.2,267.2 C 93.5,264.5 96,261.9 98.9,259.8 C 105.9,253.7 112.9,247.4 118.8,240.3 C 118.9,240.1 119.1,239.9 119.2,239.8 C 119.4,239.7 119.6,239.4 119.8,239.2 C 119.9,239.1 120.1,238.9 120.2,238.8 C 123.1,236 125.9,233 128.3,229.8 C 124.6,243.8 116.4,256.3 107.5,267.5 C 101.6,275.2 92.1,278.7 85.1,285.1 C 73.7,296.9 66.6,312.7 65.3,329 C 65.1,338.2 67.4,348.1 74.5,354.5 C 80.9,362 90.8,364.7 100,366.8 C 109.4,368.6 119.8,369.3 128.5,364.5 C 137.8,359.8 142.9,350.1 150.6,343.5 C 155.7,338.9 162.9,341.2 168.9,342 C 170.4,338.6 171.5,334.7 169.7,331.2 C 166,323.4 157.6,319.7 150.6,315.5 C 147.8,314.1 148,310 150.4,308.4 C 160.1,301 173.5,300 182.5,291.4 C 166.4,284.8 149,293.4 135.6,302.2 C 134.5,300.2 133.2,298.2 132.9,295.9 C 131.4,265.5 135.57466,236.38642 138.17466,206.08642 C 137.37466,207.88642 134.18408,219.64667 132.67762,221.27005 C 131.84777,214.77005 132.1258,197.09954 125.9258,193.79954 C 119.7258,189.09954 98.100624,186.13262 106.52985,183.73508 C 111.82985,180.73508 117.7,181.2 123.4,182.6 C 122.8,182.8 121.6,183.1 121,183.3 C 127.4,184.4 132.1,189.3 135.7,194.3 C 137.9,197.4 141.7,200.9 145.7,198.7 C 151.9,195.5 157,190.7 162.8,187 C 177.6,182.6 193.4,176.7 209,181 C 221.7,186.2 226.8,200.1 231.6,211.8 C 232.2,205.7 232,199.6 231.6,193.6 C 235.2,186.1 239.5,177.1 236,168.8 C 233.7,162.4 226.3,159.7 220,159.3 C 195.8,157.6 173.1,167.7 151,176.2 C 148.9,176.8 146.7,177.2 144.6,177.6 C 145.7,173.3 142.19508,170.16615 138.99508,166.06615 C 146.99508,163.36615 161.7,158.6 166.2,151 C 161.5,143.7 152.5,142.2 146,137.1 C 123.7,120.1 106.8,96 98.6,69.2 C 93.1,53.7 83.1,37.7 66.4,32.7 C 88.3,18.9 118.3,29.3 133,49 C 148.4,67.1 152.9,91 161.6,112.5 C 164.1,119.2 168.2,125.3 173.8,129.9 C 173.8,126 172.9,121.6 175,118.1 C 178.1,114.6 184.3,115.7 186.3,119.8 C 189.2,125.3 189.7,131.7 190.3,137.8 C 193.2,133.2 197.8,129.5 203.1,127.9 C 207.1,126.7 212.6,128.4 213.2,133.1 C 213.4,138.2 209.50137,144.49863 207.40137,149.09863 C 212.69247,144.69495 217.05745,141.95777 218.75713,147.85169 C 220.92614,155.37309 209.00032,153.60769 205.40228,154.6 C 217.00228,154.71815 232.2,156 241.3,163.8 C 245,171.1 243.3,180.1 242.2,187.9 C 251.7,194.4 259.9,203.5 262.2,215.1 C 266.1,228.9 263,243.3 264.8,257.3 C 269.2,267.2 281.3,270.3 291.2,270 C 303.2,270.8 314.3,265.4 326,263.7 C 345,259.5 363,270.2 382,268.7 C 396.5,267.9 410.4,263.4 423.4,257.2 C 435.2,251.9 447,246.7 458,240 C 478.3,231.1 501.3,228.1 523,232.5 C 539.7,234 554.40091,242.29909 567.50091,252.49909 C 572.70091,257.39909 578.7,261.9 581.5,268.6 C 574.2,268 568,264 562.2,259.9 C 545.8,248.1 526.1,241.1 506,240.2 C 488.7,238 467.6,241.8 457.9,257.8 C 450.1,271.8 435.2,279.8 420.5,284.7 C 409.7,288.1 397.7,290 386.7,286.4 C 378.8,284.1 373.3,277.5 365.7,274.5 C 356.3,270.9 346,269 336,271.2 C 324.2,273 314.1,279.9 303.3,284.5 C 293.7,288.6 281.6,288.8 273.1,281.9 C 264.8,276 262.1,265.6 256.1,257.8 C 257.7,272.5 265.6,285.9 275.2,296.8 C 281.5,303.8 279.3,313.8 277.1,321.9 C 273.8,334.8 268.4,348.9 274.3,361.8 C 279.5,374.8 293.3,380.9 301.2,391.8 C 310,402 315,414.8 317.1,428 C 321.5,417.9 330.8,411.2 340.2,406.1 C 344.2,404 348.2,401 349.1,396.3 C 353.8,378.2 345.8,360.2 345.6,342.1 C 346.5,341.2 347.3,340.3 348.1,339.4 C 359.7,340.5 367.5,351.6 371.5,361.7 C 373.6,365.7 374.6,372.2 380,372.8 C 389.3,369.9 393.9,358.7 404,357.6 C 412.5,357.1 415.6,366.3 421,371 C 424.3,374.5 429.6,372.5 432.5,369.5 C 441.1,361 443.6,348.6 446.2,337.3 C 449.3,324.9 450.9,312 456.2,300.3 C 458.7,293.8 462.2,286.5 469.4,284.2 C 476.3,282.5 484.9,283.4 489.6,289.4 C 494.9,296.4 494.7,305.7 498.9,313.2 C 500.9,317.2 503.5,321.3 503,325.9 C 499.7,346.2 488.4,363.8 480.8,382.6 C 478.3,388.5 475.5,394.9 477.2,401.4 C 479.5,400.5 481.9,399.5 483.4,397.4 C 490.1,388.8 496.1,379.6 503.9,371.9 C 507.4,368.1 511.5,364 517,363.7 C 521.9,364.4 521.8,370.3 521.3,374 C 520.2,380.8 518.7,387.6 519.5,394.6 C 522.4,394.6 525.7,395.1 528.1,393.1 C 552.9,375.3 574.7,349.2 577.4,317.7 C 579.5,307.7 578.2,296.6 583.6,287.6 C 599.1,288.9 614.8,282.6 626.3,272.4 C 638,258.6 647.3,238 637.6,220.8 C 637.7,211.2 634.5,202 630.7,193.3 C 627.62659,185.94746 623.95513,178.94704 619.8944,172.17718 C 606.77893,150.31168 589.60266,130.85128 575.4,109.7 C 567.7,98.8 562.67629,85.72106 563.97629,72.02106 C 566.51653,31.225357 606.50715,8.2232487 639.13406,16.02106 z"
     id="path10"
     style="opacity:1;fill:#8890c8;stroke:#8890c8;stroke-width:0.09375" />
  <path
     d="M 262.7,87.6 C 264.1,85.2 266,83.1 267.9,81 C 274.5,87.2 280.4,95 282.7,103.8 C 268.2,119.8 262.1,141.4 256.7,161.8 C 253.7,156.3 248.3,152.3 242,151.3 C 251.3,131 253,107.9 262.7,87.6 z"
     id="path38"
     style="opacity:1;fill:#32397d;stroke:#32397d;stroke-width:0.09375" />
  <path
     d="M 178.3,130 C 178.36529,127.81824 178.62351,125.27055 180.42547,123.77356 C 181.46321,122.91145 182.91695,123.83986 183.5318,125.00637 C 186.38333,130.41631 187.23632,136.75243 186.37315,142.76368 C 186.22475,143.79716 186.0088,145.38278 184.79222,145.40956 C 183.28439,145.44276 182.19139,144.01016 181.38736,142.84075 C 178.8162,139.10115 178.16809,134.40803 178.3,130 z"
     id="path42"
     style="opacity:1;fill:#a7addb;stroke:#a7addb;stroke-width:0.09375" />
  <path
     d="M 189.3,147 C 190.76566,140.56436 195.77123,134.89035 202.21635,133.16352 C 205.65512,132.5699 209.26264,135.8736 208.67037,139.38495 C 207.89785,141.99286 205.78624,143.87684 203.8833,145.69361 C 200.42719,148.64652 195.80894,150.5679 191.21172,149.92751 C 189.94614,149.65933 188.91277,148.30052 189.3,147 z"
     id="path44"
     style="opacity:1;fill:#a7addb;stroke:#a7addb;stroke-width:0.09375" />
  <path
     d="M 151,176.2 C 173.1,167.7 195.8,157.6 220,159.3 C 226.3,159.7 233.7,162.4 236,168.8 C 239.5,177.1 235.2,186.1 231.6,193.6 C 229.9,183.8 225,174.2 216.6,168.5 C 208.7,162.8 198,161.4 189,165.1 C 178.1,169.3 169.9,178.1 162.8,187 C 157,190.7 151.9,196.21102 145.7,199.41102 C 141.7,201.61102 137.9,198.11102 135.7,195.01102 C 132.1,190.01102 127.4,184.4 121,183.3 C 121.6,183.1 122.8,182.8 123.4,182.6 C 126.3,183.5 129.2,184.4 132.1,185.2 C 129,181.1 125.8,177.1 121.7,174 C 129,169.8 140.41387,164.31923 145.99908,165.29908 C 150.33778,166.06026 145.7,173.3 144.6,177.6 C 146.7,177.2 148.9,176.8 151,176.2 z"
     id="path46"
     style="opacity:1;fill:#a7addb;stroke:#a7addb;stroke-width:0.09375" />
  <path
     d="M 189,165.1 C 198,161.4 208.7,162.8 216.6,168.5 C 225,174.2 229.9,183.8 231.6,193.6 C 232,199.6 232.2,205.7 231.6,211.8 C 226.8,200.1 221.7,186.2 209,181 C 193.4,176.7 177.6,182.6 162.8,187 C 169.9,178.1 178.1,169.3 189,165.1 z"
     id="path48"
     style="opacity:1;fill:#32397d;stroke:#32397d;stroke-width:0.09375" />
  <path
     d="M 96.7,187.9 C 97.8,179.3 102.4,168.4 112.6,168.3 C 114.9,169.7 117.1,171.1 119.4,172.5 C 120.1,173 120.9,173.5 121.7,174 C 125.8,177.1 129,181.1 132.1,185.2 C 129.2,184.4 126.3,183.5 123.4,182.6 C 108.31594,179.4471 104.27282,183.03497 101.7,197.2 C 101.1,201.3 100.7,205.4 99.6,209.3 C 98.5,202.2 95.3,195.2 96.7,187.9 z"
     id="path50"
     style="opacity:1;fill:#32397d;stroke:#32397d;stroke-width:0.09375" />
  <path
     d="M 177.9,187.9 C 185.2,184.9 193.3,181.8 201.3,183.9 C 215.6,188.8 227.9,201.5 229.7,217 C 231.3,222.5 229.9,228.2 229.9,233.9 C 234.7,226.6 234.4,217.3 238.4,209.7 C 237.1,214.7 239,220.4 235.9,224.9 C 228.7,237.6 223.1,251.4 213.4,262.5 C 205.1,271.4 192.9,275.6 181,276.7 C 166.9,276.6 152.6,268.6 146.4,255.8 C 140,238.8 143.9,219.8 149,203 C 155.4,199.8 161.5,195.9 167.9,192.9 C 154.3,204.3 151.9,224.5 157.2,240.7 C 158.37079,246.46803 171.26887,263.94497 184.3,268.5 C 193.1,270.2 201.1,264.6 206.3,258 C 212.5,256.1 214.1,248.9 217,243.9 C 223.5,228.6 224.1,208 211.2,195.8 C 202.4,187.8 189.4,185.9 177.9,187.9 z"
     id="path52"
     style="opacity:1;fill:#6269ab;stroke:#6269ab;stroke-width:0.09375" />
  <path
     d="M 177.9,187.9 C 189.4,185.9 202.4,187.8 211.2,195.8 C 224.1,208 223.31181,230.06866 218.23125,242.10047 C 215.98607,247.41754 210.79519,257.61539 203.07979,261.88319 C 194.46338,252.49282 218.4,227.6 212.2,213 C 206.3,199.2 187.7,191.2 174.4,199.4 C 154.68161,210.72464 169.50093,241.74002 163.26064,253.12061 C 148.22279,229.77214 154.3,204.3 167.9,192.9 C 170.9,190.7 174.4,189.1 177.9,187.9 z"
     id="path56"
     style="opacity:1;fill:#4e569b;stroke:#4e569b;stroke-width:0.09375" />
  <path
     d="M 104.5,202.5 C 108.1,195.1 120.3,188.5 126.2,196.9 C 131,205.5 130.4,215.8 130.4,225.3 C 129.7,226.8 129,228.3 128.3,229.8 C 125.9,233 121.81794,237.57792 118.91794,240.37792 C 119.31794,237.77792 121,233.7 121.1,231.1 C 122.9,228.4 124.7,225.7 126.4,223 C 124.7,215.8 124.8,206.3 117.8,202.1 C 109.3,203 103.6,211.5 101,219.1 C 97.6,231.1 98.7,244 101.9,255.9 C 106.2,252 109.9,247.5 113.1,242.6 C 115,241.8 117.98482,239.91518 119.88482,239.21518 C 113.98482,246.31518 105.9,253.7 98.9,259.8 C 97.8,254.9 96.9,249.9 96.4,244.9 C 94.5,252.3 94,260.1 91.2,267.2 C 89.7,269.1 87.9,270.8 86.2,272.5 C 92,251.8 96,230.6 99.6,209.3 C 100.7,205.4 101.1,201.3 101.7,197.2 C 102.7,198.9 103.6,200.7 104.5,202.5 z"
     id="path58"
     style="opacity:1;fill:#4e569b;stroke:#4e569b;stroke-width:0.09375" />
  <path
     d="M 101.7,197.2 C 102.3,192.6 102.80569,188.97615 105.67708,185.47092 C 112.96661,187.78016 120.11177,189.31031 126.8,193.09308 C 131.65186,195.83722 132.31585,197.53443 134.33454,201.84195 C 136.90984,207.33715 133.06218,233.9734 125.52945,237.78859 C 128.52671,232.03517 131,206.49908 126.2,197.89908 C 120.3,189.49908 108.1,194.60045 104.5,204.49817 C 103.6,202.69817 102.7,198.9 101.7,197.2 z"
     id="path54"
     style="opacity:1;fill:#6269ab;stroke:#6269ab;stroke-width:0.09375" />
  <path
     d="M 139.05693,200.37508 C 136.45693,230.67508 131.4,265.5 132.9,295.9 C 133.2,298.2 134.5,300.2 135.6,302.2 C 148.72106,290.33166 179.83075,284.12418 182.5,291.4 C 183.87667,295.1525 160.18631,302.23669 150.4,308.4 C 147.96003,309.93667 147.8,314.1 150.6,315.5 C 157.6,319.7 166,323.4 169.7,331.2 C 171.5,334.7 171.75296,341.01097 168.9,342 C 164.25296,343.61097 155.7,338.9 150.6,343.5 C 142.9,350.1 137.8,359.8 128.5,364.5 C 119.8,369.3 109.4,368.6 100,366.8 C 90.8,364.7 80.9,362 74.5,354.5 C 67.4,348.1 64.418734,339.18079 64.800457,329 C 65.449675,311.68498 73.7,296.9 85.1,285.1 C 92.1,278.7 100.60426,274.28166 106.99723,266.99723 C 122.9105,248.86496 131.42584,224.56619 139.05693,200.37508 z"
     id="path64"
     style="opacity:1;fill:#a7addb;stroke:#a7addb;stroke-width:0.09375" />
  <path
     d="M 593.3,298.5 C 610.2,291.5 628.4069,284.31104 641.48068,267.9276 C 641.48068,268.5276 640,271.7 639.9,272.4 C 631.2,283 620.5,291.8 608.3,298.2 C 602.2,300.6 602.5,307.6 601.8,313 C 596.5,344.3 578.8,371.4 560.9,397 C 554.8,406.5 547.2,415.1 542.3,425.5 C 539.2,432.2 540.9,439.8 542.1,446.7 C 544.6,461.3 551.1,475 560.7,486.2 C 565.8,491.1 562.15665,498.42413 559.1,503.2 C 555.16717,509.34486 549.45057,527.89318 547.0416,547.25872 C 544.63264,566.62427 546.15095,585.32767 539.85788,583.85788 C 530.22497,581.60805 542.4,557.8 540,545 C 534.3,550.4 532.4,559.4 524.7,562.7 C 522,564.2 517.2,564.6 516.7,560.6 C 516.7,554.1 521.6,549.1 525.1,544 C 534.8,530.8 542.3,514.8 540.3,498 C 534.6,491.7 527.4,487 520.2,482.8 C 501.1,470.1 480.7,459 465,441.9 C 458.8,436.4 456.4,428.2 453.1,420.8 C 452.3,420.8 450.8,420.8 450,420.7 C 442.8,428.1 435.3,437.5 424,437.8 C 405.5,441.3 387.9,433.1 370.4,428.4 C 354.2,424 338.8,435.8 331,449.1 C 326.9,455.3 327.8,463 326.7,470 C 324.2,482.7 329.8,495.5 327.1,508.2 C 325.8,515.3 320.6,520.8 319.6,527.9 C 317,541.5 321.2,556.1 315,569.1 C 312.3,573.8 307.2,577.9 301.5,577.3 C 294.5,575.2 287.6,568.2 289.6,560.3 C 292,548.3 296.4,536.5 295.4,524 C 295.5,516.1 289.7,509.1 291.5,501.1 C 294.7,488.5 296.1,475.4 294.9,462.4 C 296.1,447.6 288.3,434.2 281.4,421.7 C 277.1,415.5 273.21932,408.68896 268.6,403.1 C 270.5862,410.79448 273.2,416.9 274.7,424.1 C 279.6,440.5 279.6,457.9 284.4,474.3 C 286.8,483.2 288.4,493.2 283.6,501.6 C 275.5,518 274.3,536.5 274.5,554.4 C 273.3,555.3 272.1,556.2 270.9,557.2 C 269,555.3 262.5414,553.89724 262.8414,550.69724 C 263.3414,538.79724 264.40592,528.34727 262.06071,515.98344 C 260.87982,509.75782 258.24744,503.26103 257.48461,492.7 C 256.9805,475.74873 263.17033,470.38078 260.09424,452.31933 C 257.40459,436.47713 248.0424,427.57188 247.81665,395.84774 C 247.68438,377.26151 277.24522,434.21042 273.34522,443.71042 C 271.64522,452.11042 270.52043,506.14263 273.81932,506.02346 C 278.08153,505.86948 281,478.1 278.8,463.5 C 278.1,448.2 275.9,432.7 269.3,418.8 C 265.1,411.1 258.6,403.9 250.1,401.3 C 250,402.2 250,404.2 250,405.2 C 248,397.8 247.93749,392.48366 249.59519,384.70481 C 249.99519,375.30481 248.7,364.4 248,355 C 250.4,357.7 252.8,360.3 255.5,362.7 C 249.8,349.2 243.4,335.5 233.6,324.4 C 228.6,318 221,323.6 214.9,324.7 C 206,327.6 197.1,322.4 188.2,324 C 184.4,324.9 179.2,327.1 179.7,331.9 C 179.7,343.3 176.5,354.4 171.3,364.4 C 170.1,366.9 167.70375,371.37044 165.6,370 C 162.57394,368.02874 166.7,358.6 166.4,352.9 C 166.2,348.7 161.32672,345.87758 158.1,346.5 C 155.48826,347.00379 156.17894,347.48159 154.7,348.7 C 156.1,358.5 149.3,366.4 143.5,373.5 C 134.6,383.2 120.1,382.9 108,382.7 C 95.2,383.3 82.4,377.5 74.8,367.2 C 87.4,377.6 104.5,382.1 120.7,379.9 C 136.4,377.1 150.8,363.4 151,346.9 C 157.6,338.7 169.3,346.7 170.5,355.3 C 176.4,347.5 179.9,336.5 174.8,327.3 C 172.8,321.4 165.4,319.7 163.4,314 C 166.8,306.7 176.4,305.8 183.4,304 C 185.6,310.4 189.6,317.4 197.1,318.1 C 212.4,319.3 228.8,312.3 236.8,298.8 C 240.9,291.7 243.9,283 252.2,279.8 C 262.6,291.4 258.5,308.4 260.2,322.6 C 259.1,342.3 258.8,363.4 268.8,381.1 C 278.3,395.1 290,407.3 299.9,421 C 306.4,430.2 307.6,442.1 305.9,453 C 305.9,467.7 303,482.3 298.1,496.2 C 296,503.1 293.24951,514.84628 299.7,517.6 C 310.34951,522.14628 320.9,506.3 322.1,495 C 323,481.5 321.5,467.9 322.7,454.5 C 326.3,438.7 344.5,434.1 351.8,420.7 C 356,412.3 354.9,402.5 357.3,393.6 C 364.8,395.9 368,403.9 374.5,407.6 C 386.1,414.2 400.1,414.2 413,412.4 C 423.3,410.6 434.1,408.7 442.9,403 C 452.9,393.4 456.3,379.2 459.8,366.3 C 463.7,352.9 461,338.5 465.3,325.1 C 466.3,321.8 469.3,318.7 473,319.2 C 483.1,321.1 491.7,331.2 488.5,341.9 C 482.1,362.3 468,379.5 462,400.1 C 459.2,410.3 460.7,421.6 466.5,430.4 C 472.1,439.3 478.6,447.7 486.8,454.3 C 498.8,464.4 510.8,474.6 524.2,482.8 C 533,486.9 541.1,493.3 551,494.4 C 553.8,495.1 557.6,492.2 555.9,489.3 C 547.4,469.7 529.6,452 532.5,429.1 C 535.6,416.6 548.2,410.2 555,400 C 570.4,378.2 581.6,353.7 589.6,328.3 C 593.1,318.8 593.8,308.5 593.3,298.5 z"
     id="path84"
     style="opacity:1;fill:#6269ab;stroke:#6269ab;stroke-width:0.09375" />
  <path
     d="M 637.6,220.8 C 647.3,238 638,258.6 626.3,272.4 C 614.8,282.6 599.1,288.9 583.6,287.6 C 578.2,296.6 579.5,307.7 577.4,317.7 C 574.7,349.2 552.9,375.3 528.1,393.1 C 525.7,395.1 522.4,394.6 519.5,394.6 C 518.7,387.6 520.2,380.8 521.3,374 C 521.8,370.3 521.9,364.4 517,363.7 C 511.5,364 507.4,368.1 503.9,371.9 C 496.1,379.6 490.1,388.8 483.4,397.4 C 481.9,399.5 479.5,400.5 477.2,401.4 C 475.5,394.9 478.3,388.5 480.8,382.6 C 488.4,363.8 499.7,346.2 503,325.9 C 503.5,321.3 500.9,317.2 498.9,313.2 C 494.7,305.7 494.9,296.4 489.6,289.4 C 484.9,283.4 476.3,282.5 469.4,284.2 C 462.2,286.5 458.7,293.8 456.2,300.3 C 450.9,312 449.3,324.9 446.2,337.3 C 443.6,348.6 441.1,361 432.5,369.5 C 429.6,372.5 424.3,374.5 421,371 C 415.6,366.3 412.5,357.1 404,357.6 C 393.9,358.7 389.3,369.9 380,372.8 C 374.6,372.2 373.6,365.7 371.5,361.7 C 367.5,351.6 359.7,340.5 348.1,339.4 C 347.3,340.3 346.5,341.2 345.6,342.1 C 345.8,360.2 353.8,378.2 349.1,396.3 C 348.2,401 344.2,404 340.2,406.1 C 330.8,411.2 321.5,417.9 317.1,428 C 315,414.8 310,402 301.2,391.8 C 293.3,380.9 279.5,374.8 274.3,361.8 C 268.4,348.9 273.8,334.8 277.1,321.9 C 279.3,313.8 281.5,303.8 275.2,296.8 C 265.6,285.9 257.7,272.5 256.1,257.8 C 262.1,265.6 264.8,276 273.1,281.9 C 281.6,288.8 293.7,288.6 303.3,284.5 C 314.1,279.9 324.2,273 336,271.2 C 346,269 356.3,270.9 365.7,274.5 C 373.3,277.5 378.8,284.1 386.7,286.4 C 397.7,290 409.7,288.1 420.5,284.7 C 435.2,279.8 450.1,271.8 457.9,257.8 C 467.6,241.8 488.7,238 506,240.2 C 526.1,241.1 545.8,248.1 562.2,259.9 C 568,264 574.2,268 581.5,268.6 C 593.8,271.7 606.3,266.9 616.6,260.4 C 630.5,252.7 639.9,236.9 637.6,220.8 z"
     id="path66"
     style="opacity:1;fill:#a7addb;stroke:#a7addb;stroke-width:0.09375" />
  <path
     d="M 119.8,239.2 C 119.9,239.1 120.1,238.9 120.2,238.8 C 120.1,238.9 119.9,239.1 119.8,239.2 z"
     id="path72"
     style="opacity:1;fill:#4e569b;stroke:#4e569b;stroke-width:0.09375" />
  <path
     d="M 119.2,239.8 C 119.4,239.7 119.6,239.4 119.8,239.2 C 119.6,239.4 119.4,239.7 119.2,239.8 z"
     id="path74"
     style="opacity:1;fill:#4e569b;stroke:#4e569b;stroke-width:0.09375" />
  <path
     d="M 236.5,240.5 C 238.3,237.8 241.9,240.5 241.6,243 C 243.3,264.6 232.6,286.4 215.8,299.7 C 204.4,307.6 189.4,297.4 185.2,286 C 185.7,285.2 186.1,284.4 186.5,283.5 C 199.4,280.9 211.9,274.7 220.5,264.5 C 227.1,257.3 230.6,248.1 236.5,240.5 z"
     id="path76"
     style="opacity:1;fill:#a7addb;stroke:#a7addb;stroke-width:0.09375" />
  <path
     d="M 118.8,240.3 C 118.9,240.1 119.1,239.9 119.2,239.8 C 119.1,239.9 118.9,240.1 118.8,240.3 z"
     id="path78"
     style="opacity:1;fill:#4e569b;stroke:#4e569b;stroke-width:0.09375" />
  <path
     d="M 91.2,267.2 C 94,260.1 94.5,252.3 96.4,244.9 C 96.9,249.9 97.8,254.9 98.9,259.8 C 96,261.9 93.5,264.5 91.2,267.2 z"
     id="path80"
     style="opacity:1;fill:#6269ab;stroke:#6269ab;stroke-width:0.09375" />
  <path
     d="M 640.1,269.9 C 640.2,269.8 640.3,269.6 640.4,269.5 C 640.3,269.6 640.2,269.8 640.1,269.9 z"
     id="path82"
     style="opacity:1;fill:#6269ab;stroke:#6269ab;stroke-width:0.09375" />
  <path
     d="M 136.9,294.1 C 133.45989,289.45565 152.87779,271.59724 157.1,278.3 C 160.87779,284.29724 139.43741,297.52565 136.9,294.1 z"
     id="path86"
     style="opacity:1;fill:#a7addb;stroke:#a7addb;stroke-width:0.09375" />
  <path
     d="M 251,303.6 C 255.1,313.3 254.5,324.5 254,334.9 C 249.4,329.3 245.73708,322.7236 241.8,316.9 C 242.71996,311.79127 246.55968,306.14347 251,303.6 z"
     id="path90"
     style="opacity:1;fill:#4e569b;stroke:#4e569b;stroke-width:0.09375" />
  <path
     d="M 78.997261,306.50137 C 85.725346,306.50386 95.645994,334.31997 89.822374,335.72414 C 86.012943,336.64266 83.385636,323.72479 81.547443,318.85459 C 80.985869,317.36673 80.319083,315.53142 78.769127,314.89669 C 72.171767,312.19496 73.664059,327.75829 69.396879,325.96459 C 67.163213,325.02567 71.147709,306.49846 78.997261,306.50137 z"
     id="path92"
     style="opacity:1;fill:#caccff;fill-opacity:1;stroke:#cac4ff;stroke-width:0.09375" />
  <path
     d="M 111.54397,322.62909 C 117.17484,319.12623 123.16519,315.21313 129.84356,315.07251 C 134.74605,315.49244 138.01011,319.94927 139.753,324.15619 C 141.46101,328.31186 142.98858,333.25305 142.82312,337.8003 C 142.65059,340.23919 142.07851,343.04579 139.97497,344.55233 C 137.23877,345.58234 134.48763,342.53265 133.62945,340.28425 C 132.19508,336.41334 133.3417,331.58161 130.30751,328.36234 C 127.12544,325.55403 122.72612,326.91466 119.49037,329.18149 C 114.68274,332.22475 110.30313,336.69306 104.40929,337.66639 C 94.244096,337.07245 108.05627,324.92968 111.54397,322.62909 z"
     id="path94"
     style="opacity:1;fill:#caccff;fill-opacity:1;stroke:#cac4ff;stroke-width:0.09375" />
  <path
     d="M 82.900002,349.60047 C 77.753463,350.10365 73.03605,342.64324 72.484311,334.84901 C 71.932573,327.05479 73.9541,319.58198 77.50822,321.52655 C 78.938017,322.30883 82.76353,330.11518 83.940078,336.81848 C 85.116626,343.52178 85.047851,349.39047 82.900002,349.60047 z"
     id="path96"
     style="opacity:1;fill:#32397d;stroke:#32397d;stroke-width:0.09375" />
  <path
     d="M 468.15769,336.05771 C 468.74474,332.14051 469.09615,328.17913 472.60476,326.11513 C 475.27651,325.6683 477.51429,328.17994 477.84051,330.65828 C 478.97021,335.39399 477.19547,340.19249 475.14581,344.4109 C 473.45328,347.97 471.49662,351.40587 469.26049,354.65207 C 467.41073,349.01595 467.63276,339.92597 468.15769,336.05771 z"
     id="path98"
     style="opacity:1;fill:#4e569b;stroke:#4e569b;stroke-width:0.09375" />
  <path
     d="M 127.67071,332.50388 C 135.72482,341.01896 125.95387,364.0988 108.0894,353.22706 C 98.029873,347.10516 121.68929,326.18012 127.67071,332.50388 z"
     id="path100"
     style="opacity:1;fill:#32397d;stroke:#32397d;stroke-width:0.09375" />
  <path
     d="M 248.96346,400.5423 C 256.76834,402.08513 265.1,411.1 269.3,418.8 C 275.9,432.7 278.1,448.2 278.8,463.5 C 281,478.1 283.01433,507.31222 273.52346,507.89724 C 263.43658,508.51899 263.5,491.7 265.2,483.3 C 273,464.3 265.2,443.8 258.2,425.8 C 255.5,418.9 250.96346,411.5423 248.86346,404.4423 C 248.86346,403.4423 248.16834,400.38513 248.96346,400.5423 z"
     id="path114"
     style="opacity:1;fill:#8890c8;stroke:#8890c8;stroke-width:0.09375" />
  <path
     d="M 474.49266,465.53658 C 480.80633,471.19064 491.84564,473.05207 496.0771,480.91475 C 494.79994,489.81122 501.3046,493.69597 505.35367,500.02427 C 509.34644,506.26456 497.68771,508.41864 496.09993,514.02099 C 491.69838,523.18817 488.2158,532.01773 487.05491,543.2097 C 486.08261,552.58343 483.03193,561.59693 481.58186,570.87507 C 480.21514,575.69879 472.58855,572.40093 474.13904,567.09428 C 477.47982,555.66028 481.12323,544.93776 483.3,532.61104 C 478.12047,540.65337 476.33929,549.08501 468.77412,552.26051 C 462.17145,555.032 467.12789,546.15441 469.66116,542.98626 C 477.08225,533.70533 481.69339,522.39033 485.95255,511.18165 C 488.51329,504.02734 487.69039,495.61655 482.64568,489.71986 C 475.50504,479.76583 449.10019,470.67015 456.75099,460.54322 C 459.9636,456.29087 468.76539,460.28876 474.49266,465.53658 z"
     id="path120"
     style="opacity:1;fill:#6269ab;stroke:#6269ab;stroke-width:0.09375" />
  <path
     d="M 545,509 C 544.57719,527.12534 538.45504,545.58706 526.1,557.2 C 522.95163,560.15927 517.80774,556.25915 520.7,552.6 C 531.00774,539.55915 539.92106,525.47894 545,509 z"
     id="path126"
     style="opacity:1;fill:#8890c8;stroke:#8890c8;stroke-width:0.09375" />
  <path
     d="M 302.1,538.7 C 306.1,538.4 307.5,543.7 307.3,547 C 307.4,554.6 311.1,564.1 304.9,570.3 C 300.6,570.4 297.9,566.2 297.4,562.3 C 295.8,554.4 296.1,544.8 302.1,538.7 z"
     id="path130"
     style="opacity:1;fill:#8890c8;stroke:#8890c8;stroke-width:0.09375" />
  <path
     d="M 246.9,566.3 C 252.3,565.1 257.6534,558.2036 261.6,559.29724 C 265.9534,560.5036 267.1,570.4 272.2,574 C 277,574.9 283,571.5 286.9,576.1 C 290.65,579.2 299.00949,589.31403 303.70715,591.68084 C 312.1018,592.59145 313.61541,589.23317 315.18229,593.54877 C 316.74917,597.86437 314.58085,605.30768 305.3423,609.63678 C 289.6423,611.43678 274,615 258.6,609.4 C 254,607.1 253.2,601.6 251.7,597.2 C 242.7,594.2 228.1,591.5 229.9,578.8 C 231.1,577.7 232.3,576.5 233.5,575.5 C 238.5,573.2 241.8,568.3 246.9,566.3 z"
     id="path134"
     style="opacity:1;fill:#6269ab;stroke:#6269ab;stroke-width:0.09375" />
  <path
     d="M 449.11119,556.90286 C 459.39968,554.14606 462.74473,573.18512 465.9,577.1 C 468.14473,579.88512 473.04012,579.58974 474.5,582.4 C 477.04012,587.28974 470.48678,593.48823 465.7,594.4 C 457.88678,595.88823 423.61922,592.18433 421.52671,587.36339 C 419.98045,583.80095 421.87372,574.27573 428.38155,568.69125 C 435.18533,562.85281 443.01762,558.53562 449.11119,556.90286 z"
     id="path136"
     style="opacity:1;fill:#6269ab;stroke:#6269ab;stroke-width:0.09375" />
  <path
     d="M 260.7577,565.9577 C 260.69707,569.64553 250.7046,596.98711 239.73473,590.83473 C 235.59387,588.51236 232.69536,584.68136 235.3,578.3 C 237.7671,574.63116 260.88007,558.51519 260.7577,565.9577 z"
     id="path138"
     style="opacity:1;fill:#cac4ff;stroke:#cac4ff;stroke-width:0.09375" />
  <path
     d="M 259.5,593.5 C 266.79715,585.26075 275.14634,573.76597 284.9,579.9 C 290.02277,583.12169 291.4012,591.07613 288.3,596.6 C 286.53645,599.74125 283.89062,602.74234 281.50828,605.40828 C 277.90528,609.44018 270.69519,608.0747 265.5,607.4 C 262.99519,607.0747 260.6184,605.1184 258.8,603.3 C 256.3184,600.8184 257.38257,596.34181 259.5,593.5 z"
     id="path144"
     style="opacity:1;fill:#cac4ff;stroke:#cac4ff;stroke-width:0.09375" />
  <path
     d="M 151.5,632 C 157.3,631.3 163.1,631.7 169,631.6 C 326.5,631.5 483.9,631.7 641.4,631.5 C 640.3,654.2 640.7,677.2 640.6,700 C 640.5,704.2 641.2,708.6 639.5,712.5 C 489.4,712.7 339.3,712.6 189.2,712.6 L 189.4,711.6 C 177.9,711.6 166.5,711.6 155,711.6 C 153.5,711.8 152.1,711 151.5,709.6 C 150.7,700.7 152.4,691.7 150.4,683 C 150.2,666 150.3,649.1 150.4,632.1 L 151.5,632 z"
     id="path148"
     style="opacity:1;fill:#4e569b;stroke:#4e569b;stroke-width:0.09375" />
  <path
     d="M 311.7,638.6 C 360.6,638.3 409.6,638.6 458.5,638.5 C 458.6,641.9 458.7,645.3 458.6,648.8 C 440.7,649.2 422.6,647.8 404.7,649.5 C 398.9,649 393,648.5 387.1,648.8 C 361.9,648.7 336.8,648.9 311.6,648.7 C 311.7,645.3 311.7,642 311.7,638.6 z"
     id="path150"
     style="opacity:1;fill:#ffffff;stroke:#ffffff;stroke-width:0.09375" />
  <path
     d="M 311.6,648.7 C 336.8,648.9 361.9,648.7 387.1,648.8 C 385.4,653.4 389.59452,665.49315 387.89452,670.09315 C 378.89452,668.29315 364,659.92743 354.8,664.02743 C 351.2,665.62743 346.95326,659.95589 345.95326,657.45589 C 334.85326,652.35589 328.68434,655.73943 325.68434,667.23943 C 320.88434,676.33943 334.23657,682.76606 327.5,691.6 C 322.2,691.5 316.9,691.5 311.6,691.5 C 311.6,677.2 311.6,663 311.6,648.7 z"
     id="path152"
     style="opacity:1;fill:#ffd900;stroke:#ffd900;stroke-width:0.09375" />
  <path
     d="M 404.7,648.69634 C 423.14948,648.69634 440.55356,648.8 458.6,648.8 C 458.9,663 458.3,677.3 458.9,691.5 C 452.1,691.5 422.9,691.5 416.1,691.6 C 411.9744,684.2624 438.31017,681.67886 434.21017,675.47886 C 428.41017,670.77886 422.95509,671.3752 416.55509,667.8752 C 409.65509,664.7752 400.7368,657.30366 404.7,648.69634 z"
     id="path156"
     style="opacity:1;fill:#ffd900;stroke:#ffd900;stroke-width:0.09375" />
  <path
     d="M 364.9,691.6 C 358.74411,685.25326 361.65874,681.11749 364.95874,678.71749 C 369.65874,681.31749 375.64464,682.73268 380.25874,684.32114 C 381.74464,684.83268 393.1,690.1 393.9,691.6 C 387.4,691.4 371.4,691.5 364.9,691.6 z"
     id="path158"
     style="opacity:1;fill:#ffd900;stroke:#ffd900;stroke-width:0.09375" />
  <path
     d="M 391.7,687.8 C 395.1,686 397.94993,678.75136 401.73211,678.8496 C 405.64993,678.95136 411.54098,682.46488 414.33943,684.45326 C 415.34098,685.16488 448.54126,688.19086 446.8,691.6 C 439.3,691.5 388.5,691.4 381,691.6 C 381.3,690.3 391.3,689 391.7,687.8 z"
     id="path160"
     style="opacity:1;fill:#ffd900;stroke:#ffd900;stroke-width:0.09375" />
  <path
     d="M 450.97132,583.08761 C 444.77047,593.44598 435.69439,594.7264 425.81388,588.98083 C 419.2875,583.43196 426.53052,577.65127 435.00353,569.12586 C 458.48807,545.49612 469.52023,564.82198 450.97132,583.08761 z"
     id="path132"
     style="opacity:1;fill:#cac4ff;stroke:#cac4ff;stroke-width:0.08628393" />
  <path
     d="M 533,589.1 C 535.99726,592.02013 542.0996,591.05497 544.46973,595.06118 C 545.35831,597.2021 542.83044,599.34598 541.38928,600.8187 C 536.91347,604.43357 531.00475,605.19501 525.59392,606.53872 C 508.84432,608.71591 485.08028,615.05483 488.6947,594.4488 C 489.26092,591.22069 493.93294,583.71833 502.68067,575.33962 C 518.13994,560.54263 524.19041,580.51713 533,589.1 z"
     id="path146"
     style="opacity:1;fill:#6269ab;stroke:#6269ab;stroke-width:0.09375" />
  <path
     d="M 523.7449,592.49994 C 521.06692,600.70163 513.19832,605.88867 505.28354,607.96745 C 480.61139,608.72239 494.82032,591.10238 504.54945,581.75201 C 517.19176,567.59258 526.42375,572.29562 523.7449,592.49994 z"
     id="path140"
     style="opacity:1;fill:#cac4ff;stroke:#cac4ff;stroke-width:0.08975104" />
  <path
     d="M 272.10001,44.400002 C 272.71398,42.736864 275.44921,42.115373 276.01902,44.112571 C 278.76981,47.581852 283.14325,49.05867 287.25988,50.190289 C 290.23491,51.129651 293.47541,51.974997 295.72794,54.268502 C 296.53731,55.156026 297.18252,56.604995 296.3233,57.672365 C 294.91474,60.123828 291.76829,60.459034 289.22662,60.082034 C 285.03087,59.450269 281.0704,57.692032 277.45775,55.516679 C 276.14666,54.365873 274.86001,52.409411 272.99294,52.295392 C 271.43868,52.056047 269.86372,52.698433 268.3,52.7 C 270.09481,50.201161 270.87287,47.181177 272.10001,44.400002 z"
     id="path26"
     style="opacity:1;fill:#a7addb;stroke:#a7addb;stroke-width:0.09375" />
  <path
     d="M 310.70001,81.5 C 316.32689,70.776637 330.75045,66.83819 341.59726,71.438431 C 351.33463,74.322661 360.02644,80.952012 364.80782,89.982295 C 369.20742,96.748426 374.63579,104.14114 373.651,112.65997 C 372.51292,117.59211 367.0927,120.06712 362.3897,119.82962 C 345.6331,119.95392 328.83087,112.64746 317.72111,100.05011 C 313.8593,95.322879 309.24107,89.827804 310.23362,83.276811 C 310.33326,82.671768 310.48805,82.075526 310.70001,81.5 z"
     id="path34"
     style="opacity:1;fill:#a7addb;stroke:#a7addb;stroke-width:0.09375" />
  <path
     d="M 89.161369,30.205519 C 97.748355,27.766777 106.38487,31.958351 113.39503,36.629132 C 130.03559,47.48627 142.34187,65.732727 143.95236,85.770119 C 144.26826,89.861716 140.61166,93.726373 136.43293,93.072906 C 130.5019,92.557803 125.89229,88.284652 121.21398,85.034897 C 111.47677,77.514892 103.83088,67.262247 99.852542,55.586015 C 97.138762,48.626816 92.222599,42.93911 87.838505,37.020882 C 86.325664,34.900484 86.381745,31.260922 89.161369,30.205519 z"
     id="path20"
     style="opacity:1;fill:#a7addb;stroke:#a7addb;stroke-width:0.09375" />
  <path
     d="M 174.4,199.4 C 187.61459,191.06464 206.31728,199.19264 212.2,213 C 218.41728,227.59264 215.53887,245.37788 206.3,258 C 201.33887,264.77788 193.11122,270.14018 184.3,268.5 C 170.01122,265.84018 160.16722,252.32814 158.5,238.5 C 156.76722,224.12814 161.61459,207.46464 174.4,199.4 z"
     id="path60"
     style="opacity:1;fill:#ffffff;stroke:#ffffff;stroke-width:0.09375" />
  <path
     d="M 175.3,231.3 C 187.40916,227.64432 199.66485,244.17983 191.58102,254.36875 C 184.36445,261.56913 172.09309,254.6172 170.5234,245.66157 C 169.11429,240.53185 170.33733,234.08674 175.3,231.3 z"
     id="path70"
     style="opacity:1;fill:#32397d;stroke:#32397d;stroke-width:0.09375" />
  <path
     d="M 101,219.1 C 103.35041,211.42201 111.43676,200.74525 117.8,202.1 C 123.8069,203.37889 125.09448,215.20828 126.4,223 C 124.7,225.7 122.9,228.4 121.1,231.1 C 119.7,226.3 113.8,223 109.6,226.6 C 103,230.6 105,242.3 113.1,242.6 C 109.9,247.5 106.2,252 101.9,255.9 C 98.7,244 97.350406,231.02201 101,219.1 z"
     id="path62"
     style="opacity:1;fill:#ffffff;stroke:#ffffff;stroke-width:0.09375" />
  <path
     d="M 109.6,226.60001 C 114.44532,222.37155 122.38273,227.89845 121.0721,233.8992 C 121.77321,240.18231 113.30405,245.1916 108.45875,240.78769 C 104.30778,237.08166 104.72222,229.49194 109.6,226.60001 z"
     id="path68"
     style="opacity:1;fill:#32397d;stroke:#32397d;stroke-width:0.09375" />
  <path
     d="M 617.5,20.6 C 625.2,18.2 659.02098,19.064238 629.9987,31.79237 C 625.18466,33.903637 587.5423,45.760455 570.1423,74.161562 C 569.6423,63.061562 577.8,47.5 584.3,39.2 C 593.1,29.9 605,23.5 617.5,20.6 z"
     id="path14"
     style="opacity:1;fill:#a7addb;stroke:#a7addb;stroke-width:0.09375" />
  <path
     d="M 387.1,648.75264 C 393.201,648.75264 399.09997,648.72745 404.7,648.72745 C 407.3,655.72745 412.32922,661.04006 419.1,664.4 C 425.62922,667.64006 434.3393,665.73821 439.3,671.2 C 447.16043,682.48809 438.12744,692.935 426.94526,692.96469 C 417.1606,692.99067 409.7804,687.35972 402.26789,683.13577 C 393.87437,688.73518 395.74802,689.62115 387.1128,689.62115 C 378.99119,689.62115 372.74984,687.00165 365.20137,683.19909 C 364.39909,687.59726 365.19863,687.70046 363.40137,691.6 C 350.90137,691.6 339.9,691.6 327.5,691.6 C 326.2,686.89635 320.7907,685.72047 319.54367,671.39497 C 318.29664,657.06947 333.88254,649.33235 340.75457,649.33235 C 347.12722,649.33235 351.1731,656.95488 351.52782,660.01493 C 360.72782,655.91493 375.15633,658.51015 383.39863,664.09863 C 383.09723,657.95544 383.40183,652.35355 387.1,648.75264 z"
     id="path154"
     style="opacity:1;fill:#e56400;stroke:#e56400;stroke-width:0.09375" />
  <path
     d="M 311.6,691.5 C 316.9,691.5 322.2,691.5 327.5,691.6 C 339.9,691.6 352.4,691.6 364.9,691.6 C 371.4,691.5 377.8,691.4 384.3,691.6 C 386.4,691.7 388.5,691.7 390.6,691.6 C 398.1,691.4 405.7,691.5 413.2,691.6 C 421.6,691.7 430.1,691.5 438.5,691.6 C 445.3,691.5 452.1,691.5 458.9,691.5 C 459.7,694.9 459.6,698.3 458.5,701.6 C 414.7,701.5 370.8,701.5 327,701.5 C 321.8,701.5 316.6,701.9 311.5,701 C 311.5,697.8 311.6,694.7 311.6,691.5 z"
     id="path162"
     style="opacity:1;fill:#520b00;stroke:#520b00;stroke-width:0.09375" />
</svg>
